<svg width="16" height="17" viewBox="0 0 16 17" fill="none" xmlns="http://www.w3.org/2000/svg">
<g clip-path="url(#clip0_1362_33583)">
<path d="M8 15.6299C7.77222 15.6299 7.55261 15.5474 7.38147 15.3975C6.73511 14.8323 6.11194 14.3011 5.56213 13.8326L5.55933 13.8302C3.94739 12.4565 2.55542 11.2703 1.58691 10.1017C0.504272 8.79529 0 7.55664 0 6.20349C0 4.88879 0.450806 3.6759 1.26929 2.78809C2.09753 1.88977 3.23401 1.39502 4.46973 1.39502C5.39331 1.39502 6.23914 1.68701 6.98364 2.26282C7.35938 2.55347 7.69995 2.90918 8 3.3241C8.30017 2.90918 8.64062 2.55347 9.01648 2.26282C9.76099 1.68701 10.6068 1.39502 11.5304 1.39502C12.766 1.39502 13.9026 1.88977 14.7308 2.78809C15.5493 3.6759 16 4.88879 16 6.20349C16 7.55664 15.4958 8.79529 14.4132 10.1016C13.4447 11.2703 12.0529 12.4564 10.4412 13.83C9.89038 14.2992 9.26624 14.8312 8.61841 15.3977C8.44739 15.5474 8.22766 15.6299 8 15.6299ZM4.46973 2.33228C3.4989 2.33228 2.60706 2.71973 1.95825 3.42334C1.2998 4.13757 0.937134 5.12488 0.937134 6.20349C0.937134 7.34155 1.36011 8.35938 2.30847 9.50366C3.2251 10.6097 4.5885 11.7716 6.16711 13.1169L6.17004 13.1194C6.72192 13.5897 7.34753 14.1229 7.99866 14.6923C8.65369 14.1218 9.28027 13.5878 9.83325 13.1167C11.4117 11.7714 12.775 10.6097 13.6917 9.50366C14.6399 8.35938 15.0629 7.34155 15.0629 6.20349C15.0629 5.12488 14.7002 4.13757 14.0417 3.42334C13.3931 2.71973 12.5011 2.33228 11.5304 2.33228C10.8192 2.33228 10.1663 2.55835 9.58972 3.00415C9.07593 3.40161 8.71802 3.90405 8.50818 4.25562C8.40027 4.4364 8.21033 4.54431 8 4.54431C7.78967 4.54431 7.59973 4.4364 7.49182 4.25562C7.2821 3.90405 6.92419 3.40161 6.41028 3.00415C5.83374 2.55835 5.18079 2.33228 4.46973 2.33228Z" fill="#C4C4C4"/>
</g>
<defs>
<clipPath id="clip0_1362_33583">
<rect width="16" height="16" fill="white" transform="translate(0 0.52002)"/>
</clipPath>
</defs>
</svg>
