<svg width="25" height="28" viewBox="0 0 25 28" fill="none" xmlns="http://www.w3.org/2000/svg">
<path fill-rule="evenodd" clip-rule="evenodd" d="M21.0525 6H3.94727V5H21.0525V6Z" fill="#FFAC0C"/>
<path fill-rule="evenodd" clip-rule="evenodd" d="M21.0525 22H3.94727V21H21.0525V22Z" fill="#FFAC0C"/>
<path fill-rule="evenodd" clip-rule="evenodd" d="M21.0525 11H3.94727V10H21.0525V11Z" fill="#FFAC0C"/>
<path fill-rule="evenodd" clip-rule="evenodd" d="M21.0525 16H3.94727V15H21.0525V16Z" fill="#FFAC0C"/>
<path fill-rule="evenodd" clip-rule="evenodd" d="M21 1H4C2.34315 1 1 2.34315 1 4V24C1 25.6569 2.34315 27 4 27H21C22.6569 27 24 25.6569 24 24V4C24 2.34315 22.6569 1 21 1ZM4 0C1.79086 0 0 1.79086 0 4V24C0 26.2091 1.79086 28 4 28H21C23.2091 28 25 26.2091 25 24V4C25 1.79086 23.2091 0 21 0H4Z" fill="#FFAC0C"/>
</svg>
