<svg width="22" height="22" viewBox="0 0 22 22" fill="none" xmlns="http://www.w3.org/2000/svg">
<g clip-path="url(#clip0_1362_43100)">
<path d="M8.79 16.8078C13.0923 16.8078 16.58 13.3201 16.58 9.01775C16.58 4.71545 13.0923 1.22775 8.79 1.22775C4.4877 1.22775 1 4.71545 1 9.01775C1 13.3201 4.4877 16.8078 8.79 16.8078Z" stroke="#C4C4C4" stroke-miterlimit="10"/>
<path d="M18.7499 20.8477L15.0799 17.1777C14.9592 17.0578 14.8635 16.9153 14.7982 16.7583C14.7328 16.6012 14.6992 16.4328 14.6992 16.2628C14.6992 16.0927 14.7328 15.9243 14.7982 15.7672C14.8635 15.6102 14.9592 15.4676 15.0799 15.3477V15.3477C15.1998 15.2271 15.3423 15.1314 15.4994 15.066C15.6564 15.0007 15.8248 14.9671 15.9949 14.9671C16.165 14.9671 16.3334 15.0007 16.4904 15.066C16.6474 15.1314 16.79 15.2271 16.9099 15.3477L20.5799 19.0178C20.7005 19.1377 20.7962 19.2802 20.8616 19.4372C20.9269 19.5943 20.9605 19.7627 20.9605 19.9327C20.9605 20.1028 20.9269 20.2712 20.8616 20.4283C20.7962 20.5853 20.7005 20.7279 20.5799 20.8477V20.8477C20.46 20.9684 20.3174 21.0641 20.1604 21.1295C20.0034 21.1948 19.835 21.2284 19.6649 21.2284C19.4948 21.2284 19.3264 21.1948 19.1694 21.1295C19.0123 21.0641 18.8698 20.9684 18.7499 20.8477V20.8477Z" stroke="#C4C4C4" stroke-miterlimit="10"/>
<path d="M15.12 15.3477L14.29 14.5177" stroke="#C4C4C4" stroke-miterlimit="10"/>
</g>
<defs>
<clipPath id="clip0_1362_43100">
<rect width="21" height="21" fill="white" transform="translate(0.5 0.727753)"/>
</clipPath>
</defs>
</svg>
