<svg width="22" height="15" viewBox="0 0 22 15" fill="none" xmlns="http://www.w3.org/2000/svg">
<path fill-rule="evenodd" clip-rule="evenodd" d="M1.19995 4.0498C1.19995 3.63559 1.46858 3.2998 1.79995 3.2998H21.4C21.7313 3.2998 22 3.63559 22 4.0498C22 4.46402 21.7313 4.7998 21.4 4.7998H1.79995C1.46858 4.7998 1.19995 4.46402 1.19995 4.0498Z" fill="white"/>
<path d="M0.149769 3.85588C0.0680022 3.93456 0.0680023 4.06544 0.149769 4.14411L3.26133 7.13821C3.38839 7.26048 3.6 7.17043 3.6 6.9941L3.6 1.0059C3.6 0.829572 3.38839 0.739525 3.26133 0.861789L0.149769 3.85588Z" fill="white"/>
<path fill-rule="evenodd" clip-rule="evenodd" d="M20.8 10.9502C20.8 11.3644 20.5314 11.7002 20.2 11.7002L0.60005 11.7002C0.268679 11.7002 4.96145e-05 11.3644 4.96435e-05 10.9502C4.96725e-05 10.536 0.268679 10.2002 0.60005 10.2002L20.2 10.2002C20.5314 10.2002 20.8 10.536 20.8 10.9502Z" fill="white"/>
<path d="M21.8502 11.1441C21.932 11.0654 21.932 10.9346 21.8502 10.8559L18.7387 7.86179C18.6116 7.73952 18.4 7.82957 18.4 8.0059L18.4 13.9941C18.4 14.1704 18.6116 14.2605 18.7387 14.1382L21.8502 11.1441Z" fill="white"/>
</svg>
