<svg width="41" height="41" viewBox="0 0 41 41" fill="none" xmlns="http://www.w3.org/2000/svg">
<path fill-rule="evenodd" clip-rule="evenodd" d="M19.5328 13.9417L19.5031 23.5169C19.5014 24.0692 19.9477 24.5183 20.5 24.52C21.0523 24.5217 21.5014 24.0754 21.5031 23.5231L21.5329 13.9268L24.313 16.707C24.7036 17.0975 25.3367 17.0975 25.7272 16.707C26.1178 16.3164 26.1178 15.6833 25.7272 15.2927L21.2521 10.8176C21.2364 10.8017 21.2202 10.7863 21.2035 10.7715C21.1229 10.7 21.0335 10.6437 20.9391 10.6027C20.8178 10.5499 20.6841 10.5205 20.5434 10.52C20.4127 10.5196 20.2877 10.5443 20.1731 10.5896C20.0493 10.6384 19.9333 10.7128 19.8332 10.8129L15.3534 15.2927C14.9629 15.6833 14.9629 16.3164 15.3534 16.707C15.7439 17.0975 16.3771 17.0975 16.7676 16.707L19.5328 13.9417ZM11.5 20.52C12.0523 20.52 12.5 20.9677 12.5 21.52V27.52C12.5 28.0723 12.9477 28.52 13.5 28.52H27.5C28.0523 28.52 28.5 28.0723 28.5 27.52V21.52C28.5 20.9677 28.9477 20.52 29.5 20.52C30.0523 20.52 30.5 20.9677 30.5 21.52V27.52C30.5 29.1769 29.1569 30.52 27.5 30.52H13.5C11.8431 30.52 10.5 29.1769 10.5 27.52V21.52C10.5 20.9677 10.9477 20.52 11.5 20.52Z" fill="#C4C4C4"/>
</svg>
