<svg width="22" height="22" viewBox="0 0 22 22" fill="none" xmlns="http://www.w3.org/2000/svg">
<path d="M3.61 8.75H2.74L1 20.93L6.22 18.32L11 20.44L15.78 18.32L21 20.93L19.26 8.75H18.39" stroke="white" stroke-miterlimit="10"/>
<path d="M16.9398 6.94C16.9398 11.22 10.9998 17.2 10.9998 17.2C10.9998 17.2 5.0498 11.2 5.0498 6.94C5.0498 5.36462 5.67562 3.85377 6.78958 2.73981C7.90355 1.62584 9.41442 1 10.9898 1C12.5652 1 14.0761 1.62584 15.19 2.73981C16.304 3.85377 16.9298 5.36462 16.9298 6.94H16.9398Z" stroke="white" stroke-miterlimit="10"/>
<path d="M13.6998 6.69025C13.6998 7.22426 13.5415 7.74629 13.2448 8.19031C12.9481 8.63432 12.5264 8.98034 12.033 9.18469C11.5397 9.38905 10.9968 9.44256 10.4731 9.33838C9.9493 9.2342 9.46821 8.97703 9.09061 8.59943C8.713 8.22182 8.45586 7.74073 8.35168 7.21698C8.2475 6.69323 8.30098 6.15034 8.50534 5.65698C8.7097 5.16362 9.05574 4.74193 9.49975 4.44525C9.94377 4.14857 10.4658 3.99023 10.9998 3.99023C11.7159 3.99023 12.4026 4.27472 12.909 4.78107C13.4153 5.28742 13.6998 5.97416 13.6998 6.69025V6.69025Z" stroke="white" stroke-miterlimit="10"/>
</svg>
