<svg width="21" height="19" viewBox="0 0 21 19" fill="none" xmlns="http://www.w3.org/2000/svg">
<path d="M6.14893 3.60989H19.1184C19.2555 3.60877 19.391 3.63944 19.5139 3.69937C19.6368 3.7593 19.7436 3.8468 19.8257 3.95486C19.9079 4.06292 19.963 4.18848 19.9867 4.32138C20.0103 4.45428 20.0019 4.59084 19.962 4.71994L18.5187 9.71994H8.80178" stroke="black" stroke-miterlimit="10"/>
<path d="M0 1H2.03284C2.22115 1.00005 2.40453 1.05923 2.55627 1.16895C2.70801 1.27866 2.82019 1.43318 2.87646 1.60999L6.02735 11.69C6.08363 11.8668 6.19581 12.0213 6.34755 12.131C6.4993 12.2408 6.68267 12.2999 6.87098 12.3H19.4746" stroke="black" stroke-miterlimit="10"/>
<path d="M7.91749 17.52C8.89424 17.52 9.68606 16.741 9.68606 15.78C9.68606 14.8191 8.89424 14.04 7.91749 14.04C6.94074 14.04 6.14893 14.8191 6.14893 15.78C6.14893 16.741 6.94074 17.52 7.91749 17.52Z" stroke="black" stroke-miterlimit="10"/>
<path d="M17.6348 17.52C18.6115 17.52 19.4033 16.741 19.4033 15.78C19.4033 14.8191 18.6115 14.04 17.6348 14.04C16.658 14.04 15.8662 14.8191 15.8662 15.78C15.8662 16.741 16.658 17.52 17.6348 17.52Z" stroke="black" stroke-miterlimit="10"/>
</svg>
