<svg width="21" height="16" viewBox="0 0 21 16" fill="none" xmlns="http://www.w3.org/2000/svg">
<g clip-path="url(#clip0_2_18628)">
<path d="M19.6302 12.67H20.5002V0.5H9.2002V4.85V8.33V12.67H14.4102" stroke="white" stroke-miterlimit="10"/>
<path d="M2.24002 12.6698H0.5V10.0598C0.5 9.59834 0.68333 9.15572 1.00964 8.82941C1.33596 8.50309 1.77854 8.31982 2.24002 8.31982H3.97V5.6698C3.9726 5.43987 4.06509 5.22009 4.22769 5.0575C4.39029 4.8949 4.61009 4.8024 4.84003 4.7998H9.19V12.6698H7.42001" stroke="white" stroke-miterlimit="10"/>
<path d="M4.84969 14.84C6.04815 14.84 7.01969 13.8685 7.01969 12.67C7.01969 11.4715 6.04815 10.5 4.84969 10.5C3.65123 10.5 2.67969 11.4715 2.67969 12.67C2.67969 13.8685 3.65123 14.84 4.84969 14.84Z" stroke="white" stroke-miterlimit="10"/>
<path d="M17.0196 14.84C18.2181 14.84 19.1896 13.8685 19.1896 12.67C19.1896 11.4715 18.2181 10.5 17.0196 10.5C15.8212 10.5 14.8496 11.4715 14.8496 12.67C14.8496 13.8685 15.8212 14.84 17.0196 14.84Z" stroke="white" stroke-miterlimit="10"/>
<path d="M18.7598 3.97998L14.4098 8.32998L11.7998 5.71998" stroke="white" stroke-miterlimit="10"/>
</g>
<defs>
<clipPath id="clip0_2_18628">
<rect width="21" height="15.35" fill="white"/>
</clipPath>
</defs>
</svg>
