<svg width="22" height="19" viewBox="0 0 22 19" fill="none" xmlns="http://www.w3.org/2000/svg">
<path d="M20.924 5.4402V5.37019C20.7762 4.50471 20.4143 3.69082 19.8717 3.00386C19.3291 2.3169 18.6234 1.77909 17.8199 1.4402C16.5991 0.914068 15.2294 0.85757 13.9701 1.28145C12.7109 1.70532 11.6494 2.58013 10.9869 3.74019C10.3262 2.5809 9.26654 1.70636 8.00893 1.28242C6.75131 0.858491 5.38315 0.914652 4.16384 1.4402C3.35828 1.77592 2.65067 2.3128 2.10764 3.00032C1.5646 3.68784 1.20399 4.50338 1.05974 5.37019V5.4402C0.93273 6.27755 1.00892 7.1335 1.28182 7.93465C1.55472 8.7358 2.01618 9.45824 2.62665 10.0402L10.5605 17.8602C10.6251 17.9267 10.7022 17.9796 10.7874 18.0156C10.8725 18.0517 10.964 18.0703 11.0563 18.0703C11.1487 18.0703 11.2401 18.0517 11.3252 18.0156C11.4104 17.9796 11.4875 17.9267 11.5522 17.8602L19.486 10.0402C20.0721 9.44466 20.5085 8.71637 20.7587 7.91615C21.0088 7.11593 21.0655 6.26701 20.924 5.4402V5.4402Z" stroke="black" stroke-miterlimit="10"/>
</svg>
