<svg width="15" height="19" viewBox="0 0 15 19" fill="none" xmlns="http://www.w3.org/2000/svg">
<g clip-path="url(#clip0_2_18621)">
<path d="M14.5264 7.01773C14.5264 11.7412 7.54154 18.3155 7.54154 18.3155C7.54154 18.3155 0.54635 11.7701 0.556652 7.01773C0.556652 5.28434 1.29255 3.62193 2.60247 2.39624C3.91239 1.17054 5.68903 0.481934 7.54154 0.481934C9.39405 0.481934 11.1707 1.17054 12.4806 2.39624C13.7905 3.62193 14.5264 5.28434 14.5264 7.01773Z" stroke="white" stroke-miterlimit="10"/>
<path d="M10.6733 6.76692C10.6733 7.35414 10.4872 7.9282 10.1385 8.41646C9.78988 8.90472 9.29431 9.28522 8.7145 9.50994C8.1347 9.73466 7.4967 9.79348 6.88118 9.67892C6.26567 9.56435 5.70028 9.28161 5.25652 8.86638C4.81275 8.45115 4.51055 7.9221 4.38812 7.34616C4.26568 6.77023 4.32853 6.17325 4.56869 5.63073C4.80885 5.0882 5.21555 4.6245 5.73736 4.29826C6.25917 3.97201 6.87264 3.79785 7.50022 3.79785C8.34177 3.79785 9.14887 4.11065 9.74394 4.66746C10.339 5.22426 10.6733 5.97948 10.6733 6.76692V6.76692Z" stroke="white" stroke-miterlimit="10"/>
</g>
<defs>
<clipPath id="clip0_2_18621">
<rect width="15" height="19" fill="white"/>
</clipPath>
</defs>
</svg>
