<svg width="20" height="22" viewBox="0 0 20 22" fill="none" xmlns="http://www.w3.org/2000/svg">
<path d="M6.28571 8.20001L6.13265 7.83002H5.81633L5.49999 5.75H5.94897L6.01019 5.19C6.2857 2.33 7.57142 1 10.0918 1C12.6122 1 13.8673 2.33 14.1735 5.19L14.2245 5.71997H14.6429C14.6504 5.78978 14.6504 5.86019 14.6429 5.92999L14.3571 7.59998V7.65997C14.3634 7.70978 14.3634 7.76019 14.3571 7.81H14.051L13.898 8.20996C13.1224 10.21 11.7551 11.38 10.1225 11.38C8.4898 11.38 7.05101 10.21 6.28571 8.20001ZM19 19.29C18.9966 19.5639 18.8909 19.8271 18.7029 20.0298C18.5148 20.2325 18.2575 20.3607 17.9796 20.39C12.6889 21.1601 7.31112 21.1601 2.02041 20.39C1.74248 20.3607 1.48516 20.2325 1.29713 20.0298C1.10909 19.8271 1.00338 19.5639 1 19.29V16.67C1.0027 15.4146 1.51348 14.2115 2.42025 13.3248C3.32702 12.438 4.55571 11.94 5.83672 11.94H7.2857C8.09305 12.405 9.01252 12.6501 9.94897 12.65C10.8824 12.6517 11.799 12.4065 12.602 11.94H14.0612C15.3422 11.94 16.5709 12.438 17.4777 13.3248C18.3845 14.2115 18.8952 15.4146 18.898 16.67L19 19.29Z" stroke="black" stroke-miterlimit="10"/>
</svg>
