<svg width="23" height="31" viewBox="0 0 23 31" fill="none" xmlns="http://www.w3.org/2000/svg">
<path d="M22.2734 11.4503C22.2734 19.157 11.5632 29.8835 11.5632 29.8835C11.5632 29.8835 0.837248 19.2042 0.853045 11.4503C0.853045 8.62212 1.98142 5.90978 3.98997 3.90996C5.99851 1.91014 8.7227 0.786621 11.5632 0.786621C14.4037 0.786621 17.1279 1.91014 19.1364 3.90996C21.145 5.90978 22.2734 8.62212 22.2734 11.4503Z" stroke="white" stroke-miterlimit="10"/>
<path d="M16.3655 11.0415C16.3655 11.9996 16.0802 12.9363 15.5456 13.7329C15.0109 14.5295 14.2511 15.1503 13.362 15.517C12.473 15.8836 11.4947 15.9796 10.551 15.7927C9.60716 15.6058 8.74023 15.1445 8.0598 14.467C7.37936 13.7895 6.91598 12.9263 6.72825 11.9866C6.54052 11.0469 6.63688 10.0729 7.00513 9.18775C7.37338 8.30258 7.99698 7.54601 8.79709 7.01372C9.59719 6.48142 10.5379 6.19727 11.5001 6.19727C12.7905 6.19727 14.0281 6.70762 14.9405 7.61609C15.8529 8.52456 16.3655 9.75676 16.3655 11.0415V11.0415Z" stroke="white" stroke-miterlimit="10"/>
</svg>
