<svg width="31" height="31" viewBox="0 0 31 31" fill="none" xmlns="http://www.w3.org/2000/svg">
<g clip-path="url(#clip0_146_3217)">
<path d="M26.1941 7.07402L24.0151 6.98134L23.9224 4.78802L26.9204 1.7915L27.0131 3.98483L29.2075 4.0775L26.1941 7.07402Z" stroke="white" stroke-miterlimit="10"/>
<path d="M24.0149 6.99707L13.6455 17.3458" stroke="white" stroke-miterlimit="10"/>
<path d="M14.6966 14.1791C14.3206 14.0413 13.9226 13.9733 13.5222 13.9783C12.8283 13.9783 12.1501 14.1839 11.5732 14.5692C10.9963 14.9545 10.5467 15.5022 10.2812 16.1428C10.0157 16.7835 9.94621 17.4885 10.0816 18.1686C10.2169 18.8487 10.551 19.4735 11.0416 19.9639C11.5322 20.4542 12.1573 20.7881 12.8378 20.9234C13.5183 21.0587 14.2236 20.9893 14.8646 20.7239C15.5056 20.4585 16.0535 20.0091 16.4389 19.4325C16.8244 18.8559 17.0301 18.178 17.0301 17.4845C17.0274 17.0849 16.9596 16.6884 16.8292 16.3106" stroke="white" stroke-miterlimit="10"/>
<path d="M17.8798 10.642C16.1848 9.55399 14.1476 9.12973 12.1589 9.4507C10.1702 9.77167 8.37012 10.8152 7.10392 12.3812C5.83772 13.9472 5.19457 15.9254 5.29787 17.9362C5.40117 19.947 6.24363 21.8488 7.66364 23.2769C9.08366 24.705 10.9812 25.5589 12.9923 25.6746C15.0035 25.7903 16.9865 25.1597 18.5611 23.9038C20.1357 22.648 21.1909 20.8552 21.5243 18.8696C21.8577 16.8839 21.4459 14.8451 20.3678 13.1443" stroke="white" stroke-miterlimit="10"/>
<path d="M20.8935 7.07407C18.2863 5.24145 15.0863 4.45274 11.9256 4.86371C8.7649 5.27467 5.87331 6.85543 3.82202 9.29376C1.77073 11.7321 0.708922 14.8507 0.846319 18.0335C0.983716 21.2163 2.31033 24.2318 4.56412 26.4844C6.81791 28.7371 9.83498 30.0631 13.0194 30.2005C16.2037 30.3378 19.3239 29.2765 21.7634 27.2262C24.203 25.1759 25.7845 22.2858 26.1957 19.1267C26.6068 15.9676 25.8177 12.7691 23.9842 10.1633" stroke="white" stroke-miterlimit="10"/>
</g>
<defs>
<clipPath id="clip0_146_3217">
<rect width="31" height="31" fill="white"/>
</clipPath>
</defs>
</svg>
