<svg width="200" height="41" viewBox="0 0 200 41" fill="none" xmlns="http://www.w3.org/2000/svg">
<g clip-path="url(#clip0_2_16720)">
<path d="M124.951 18.9277C124.799 19.1865 124.669 19.4087 124.619 19.5281C124.391 19.9494 123.681 22.3576 123.747 22.4372C123.813 22.5168 124.019 22.8087 124.019 22.8087C124.014 22.9308 123.987 23.051 123.939 23.1636C123.841 23.3489 123.756 23.5406 123.684 23.7375L124.139 25.4392L124.951 18.9277Z" fill="#00A651"/>
<path d="M124.517 14.6948C124.835 14.9268 125.127 15.1939 125.386 15.4909L125.485 14.6948H124.517Z" fill="#00A651"/>
<path d="M122.361 18.5761C122.361 18.3704 122.321 18.1648 122.294 17.9591C122.262 17.7496 122.198 17.5461 122.105 17.3554C122.038 17.222 121.954 17.0973 121.856 16.9839L122.351 18.8315C122.362 18.7469 122.366 18.6613 122.361 18.5761Z" fill="#00A651"/>
<path d="M127.001 19.9029L125.064 18.7485L124.951 18.9409L124.125 25.4524L127.001 19.9029Z" fill="#8DC63F"/>
<path d="M124.951 18.9277L124.125 25.4392L124.951 18.9277Z" fill="#8DC63F"/>
<path d="M125.625 14.6948H125.485L125.386 15.4909C126.208 16.4628 125.916 17.1495 125.883 17.2822C125.85 17.4148 125.426 18.1214 125.064 18.735L127.001 19.8894L125.625 14.6948Z" fill="#006838"/>
<path d="M125.625 14.6948L127.001 19.8894L128.63 14.6948H125.625Z" fill="#8DC63F"/>
<path d="M124.125 25.4389L127.671 24.1684L125.993 21.8398L124.125 25.4389Z" fill="#00A651"/>
<path d="M125.993 21.8401L127.671 24.1687L127.001 19.8896L125.993 21.8401Z" fill="#006838"/>
<path d="M128.63 14.6948L127.001 19.8894L131.28 16.3136L129.197 14.6948H128.729H128.63Z" fill="#00A651"/>
<path d="M127.671 24.1687L127.708 24.1289L127.694 24.0128L127.863 23.9763L131.28 20.5597L127.001 19.8896L127.671 24.1687Z" fill="#00A651"/>
<path d="M131.28 20.5598V16.314L127.001 19.8898L131.28 20.5598Z" fill="#006838"/>
<path d="M131.297 16.3136L131.917 15.8558C131.91 15.5024 131.951 15.1498 132.04 14.8076C132.051 14.7691 132.066 14.7314 132.083 14.6948H129.213L131.297 16.3136Z" fill="#8DC63F"/>
<path d="M131.297 20.5662L132.623 17.468C132.454 17.1363 132.292 16.8212 132.162 16.5956L131.29 16.3203L131.297 20.5662Z" fill="#00A651"/>
<path d="M132.152 16.5856C132.102 16.4961 132.059 16.4164 132.023 16.3567C131.946 16.1993 131.905 16.0274 131.9 15.8525L131.296 16.3136L132.152 16.5856Z" fill="#00A651"/>
<path d="M121.445 20.2344C121.555 20.1638 121.657 20.0815 121.75 19.989C121.968 19.7739 122.137 19.515 122.248 19.2294C122.3 19.0939 122.334 18.9523 122.35 18.8081L121.856 16.9605L121.78 16.8576C121.699 16.7521 121.624 16.6413 121.558 16.5259C121.492 16.3977 121.437 16.2646 121.392 16.1279C121.335 15.9773 121.287 15.8233 121.249 15.6668C121.199 15.4247 121.173 15.1759 121.13 14.9337C121.116 14.8477 121.094 14.7632 121.063 14.6816L119.647 20.5661L121.445 20.2344Z" fill="#006838"/>
<path d="M122.354 18.8216L121.856 16.9707L122.354 18.8216Z" fill="#006838"/>
<path d="M119.703 20.6191C119.882 20.6778 120.071 20.6959 120.257 20.6721C120.517 20.6396 120.771 20.5727 121.014 20.4731C121.163 20.4102 121.308 20.3348 121.445 20.2476L119.647 20.5594L119.703 20.6191Z" fill="#00A651"/>
<path d="M123.667 23.7373C123.574 24.028 123.523 24.3309 123.518 24.6362V24.7756L124.125 25.439L123.667 23.7373Z" fill="#00A651"/>
<path d="M123.671 23.7339L124.125 25.4389L123.671 23.7339Z" fill="#00A651"/>
<path d="M118.284 16.151C118.661 15.7813 119.068 15.443 119.501 15.1393C119.501 15.1393 119.581 15.0332 119.256 14.7214V14.6948H117.786L118.257 16.1776C118.257 16.1776 118.277 16.161 118.284 16.151Z" fill="#00A651"/>
<path d="M120.178 14.6948L120.261 14.7943C120.36 14.9434 120.41 15.1197 120.403 15.2985C120.408 15.3847 120.408 15.4711 120.403 15.5573C120.393 15.655 120.36 15.7491 120.307 15.8319C120.254 15.9148 120.182 15.9843 120.098 16.0349C120.016 16.0787 119.925 16.1058 119.833 16.1145C119.635 16.1346 119.441 16.1803 119.255 16.2505C119.135 16.3018 119.023 16.3711 118.924 16.4562C118.807 16.5541 118.672 16.6274 118.526 16.6718H118.439L119.647 20.5661L121.063 14.7147H120.184L120.178 14.6948Z" fill="#00A651"/>
<path d="M123.518 24.7754C123.518 25.0076 123.498 25.2862 123.485 25.5881L124.125 25.4388L123.518 24.7754Z" fill="#00A651"/>
<path d="M123.518 24.7754L124.125 25.4388L123.518 24.7754Z" fill="#00A651"/>
<path d="M118.556 17.1162L117.76 17.7796C117.76 17.8194 117.796 17.8592 117.813 17.9024C117.871 18.0629 117.92 18.2268 117.959 18.3933C118.009 18.6056 118.038 18.8179 118.088 19.0302C118.168 19.2988 118.3 19.5491 118.476 19.7666C118.532 19.8484 118.597 19.924 118.669 19.9921C118.778 20.0916 118.898 20.1812 119 20.2707C119.166 20.3916 119.348 20.4877 119.541 20.556H119.634L118.556 17.1162Z" fill="#00A651"/>
<path d="M118.416 16.6851C118.339 16.6829 118.263 16.6671 118.191 16.6386C118.002 16.5693 117.841 16.4415 117.73 16.2738C117.648 16.1617 117.597 16.0302 117.581 15.8923C117.677 15.9686 117.75 16.0316 117.746 16.0482C117.743 16.0648 118.111 16.3301 118.257 16.1776L117.786 14.6948H117.478L116.778 15.9686C116.816 16.2177 116.912 16.4542 117.06 16.6585C117.183 16.8343 117.315 16.9903 117.438 17.1793C117.57 17.3692 117.681 17.5727 117.77 17.7863L118.566 17.1229L118.416 16.6851Z" fill="#006838"/>
<path d="M119.647 20.6027H119.667H119.703L119.647 20.543V20.6027Z" fill="#006838"/>
<path d="M119.703 20.6193L119.647 20.5596L119.703 20.6193Z" fill="#006838"/>
<path d="M119.554 20.5664C119.584 20.5817 119.615 20.595 119.647 20.6062V20.5664H119.554Z" fill="#006838"/>
<path d="M117.063 14.6948H115.458C115.883 14.9619 116.336 15.1842 116.808 15.3582C116.779 15.4767 116.763 15.5979 116.761 15.7198C116.758 15.8031 116.764 15.8864 116.778 15.9686L117.478 14.6948H117.063Z" fill="#00A651"/>
<path d="M123.485 25.5883C123.478 26.4304 123.393 27.2699 123.229 28.096C123.169 28.2472 123.094 28.3917 123.004 28.5273L125.273 29.9204C125.252 29.7955 125.241 29.669 125.24 29.5423L124.118 25.4258L123.485 25.5883Z" fill="#006838"/>
<path d="M127.671 24.1685L124.125 25.4389L126.885 26.4871C127.225 26.0191 127.534 25.5293 127.81 25.0209L127.727 24.2912L127.671 24.1685Z" fill="#006838"/>
<path d="M129.137 24.1685C129.17 24.394 129.207 24.6793 129.227 24.9745C129.321 25.5759 129.449 26.1716 129.608 26.7591L131.681 24.1685H129.137Z" fill="#00A651"/>
<path d="M127.728 24.2912L127.947 24.7655C128.066 24.5367 128.162 24.3376 128.238 24.1685H127.714L127.728 24.2912Z" fill="#00A651"/>
<path d="M131.698 24.185L131.682 24.1685L131.698 24.185Z" fill="#00A651"/>
<path d="M127.708 24.1287L127.864 23.9761L127.694 24.0126L127.708 24.1287Z" fill="#00A651"/>
<path d="M127.81 25.0213L127.946 24.7658L127.728 24.2915L127.81 25.0213Z" fill="#00A651"/>
<path d="M125.246 29.5555C125.244 29.5254 125.251 29.4954 125.266 29.4692C125.503 29.2285 125.705 28.9561 125.866 28.6598C125.907 28.4083 125.934 28.1547 125.946 27.9002L126.414 27.0909C126.583 26.8918 126.745 26.6895 126.885 26.4872L124.125 25.439L125.246 29.5555Z" fill="#8DC63F"/>
<path d="M133.618 20.198C133.459 19.6905 133.287 19.1797 133.197 18.848C133.035 18.3719 132.837 17.9084 132.607 17.4614L131.296 20.5662L133.618 20.198Z" fill="#00A651"/>
<path d="M131.297 20.5664L127.877 23.983L128.384 23.8802C128.441 23.7475 128.467 23.6712 128.467 23.6712L129.084 23.7209L131.592 23.2035L131.297 20.5664Z" fill="#8DC63F"/>
<path d="M127.714 24.1687L127.707 24.1289L127.671 24.1687H127.714Z" fill="#8DC63F"/>
<path d="M131.575 23.2197L129.067 23.7372C129.067 23.7737 129.104 23.9395 129.137 24.1784H131.681L131.575 23.2197Z" fill="#8DC63F"/>
<path d="M127.708 24.1323V24.1687H128.232C128.285 24.0527 128.328 23.9531 128.361 23.8735L127.853 23.9764L127.708 24.1323Z" fill="#8DC63F"/>
<path d="M134.113 21.9198C134.113 21.8435 134.086 21.7739 134.076 21.7108C134.04 21.5085 133.837 20.8617 133.625 20.1982L131.296 20.5664L134.113 21.9198Z" fill="#8DC63F"/>
<path d="M131.575 23.2201L132.481 23.031L131.714 24.1721L133.184 23.8039C133.21 23.4091 133.22 23.1405 133.22 23.1405C133.321 23.089 133.409 23.0166 133.479 22.9282C133.525 22.832 133.413 22.623 133.575 22.5965C133.738 22.5699 133.834 22.7889 133.907 22.7889C134.012 22.7728 134.116 22.7461 134.215 22.7092C134.215 22.7092 134.159 22.2813 134.106 21.933L131.296 20.5664L131.575 23.2201Z" fill="#00A651"/>
<path d="M131.715 24.1588L132.481 23.021L131.575 23.2101L131.681 24.1687L131.715 24.1588Z" fill="#00A651"/>
<path d="M131.698 24.1854L133.025 25.4691C133.115 24.872 133.168 24.2484 133.198 23.8105L131.728 24.1787L131.698 24.1854Z" fill="#8DC63F"/>
<path d="M131.698 24.1852L131.715 24.1587L131.682 24.1686L131.698 24.1852Z" fill="#8DC63F"/>
<path d="M129.97 28.1226L130.089 28.5803C130.235 29.2736 129.655 30.7928 129.655 30.7928C129.558 31.2431 129.543 31.7072 129.612 32.1628L131.084 29.1774L129.97 28.1226Z" fill="#00A651"/>
<path d="M131.675 24.2148L129.705 27.1372C129.801 27.512 129.894 27.8603 129.963 28.1323L131.078 29.1938L131.675 24.2148Z" fill="#006838"/>
<path d="M131.682 24.1685L129.608 26.7591C129.642 26.8885 129.675 27.0145 129.705 27.1406L131.675 24.2182L131.682 24.1685Z" fill="#006838"/>
<path d="M131.675 24.2148L131.078 29.1904L132.534 29.3497C132.516 29.3069 132.503 29.2625 132.494 29.217C132.49 29.0466 132.517 28.877 132.574 28.7161C132.649 28.4314 132.687 28.1382 132.686 27.8437C132.653 27.7442 132.428 27.6016 132.428 27.6016L132.653 26.9216C132.726 26.7578 132.785 26.588 132.829 26.414L131.691 24.1982L131.675 24.2148Z" fill="#00A651"/>
<path d="M131.675 24.2182L131.695 24.1917L131.681 24.1685L131.675 24.2182Z" fill="#00A651"/>
<path d="M131.691 24.1917L132.829 26.4075C132.906 26.1014 132.967 25.7913 133.011 25.4787L131.685 24.1851L131.691 24.1917Z" fill="#006838"/>
<path d="M131.695 24.1917L131.698 24.185L131.682 24.1685L131.695 24.1917Z" fill="#006838"/>
<path d="M122.719 28.9917C122.317 29.5689 121.84 30.146 121.84 30.146C121.76 30.3047 121.695 30.4701 121.644 30.6403L122.881 31.6785L122.719 28.9917Z" fill="#00A651"/>
<path d="M121.644 30.6401C121.562 30.9096 121.514 31.1881 121.501 31.4694L122.881 31.6784L121.644 30.6401Z" fill="#8DC63F"/>
<path d="M122.719 28.9917L122.881 31.6786L125.293 30.02C125.293 29.9869 125.293 29.9537 125.293 29.9205L123.004 28.5273C122.924 28.6832 122.825 28.8358 122.719 28.9917Z" fill="#006838"/>
<path d="M125.326 31.9306C125.369 31.7481 125.359 31.6287 125.402 31.4231C125.43 30.9573 125.396 30.4898 125.299 30.0332L122.888 31.6917L125.326 31.9306Z" fill="#00A651"/>
<path d="M121.501 31.4692C121.485 31.9327 121.527 32.3963 121.628 32.8491L122.881 31.6782L121.501 31.4692Z" fill="#00A651"/>
<path d="M124.772 33.0581C125.011 32.7122 125.195 32.3319 125.319 31.9303L122.881 31.6782L124.772 33.0581Z" fill="#00A651"/>
<path d="M123.193 34.4413L124.367 33.7083L124.427 33.6054C124.56 33.3998 124.673 33.2207 124.759 33.0581L122.868 31.6782L123.193 34.4413Z" fill="#00A651"/>
<path d="M124.772 33.0585L122.881 31.6753L124.772 33.0585Z" fill="#00A651"/>
<path d="M123.601 36.0802C123.601 36.0603 123.601 36.0437 123.601 36.0205L123.508 36.0603L123.601 36.0802Z" fill="#00A651"/>
<path d="M122.881 31.6782L121.627 32.8392C121.753 33.3701 121.91 33.8929 122.098 34.4049C122.119 34.4939 122.128 34.5854 122.125 34.6769L123.193 34.4314L122.881 31.6782Z" fill="#006838"/>
<path d="M123.588 36.0206C123.588 35.9874 123.588 35.9509 123.588 35.9111L123.505 36.0604L123.588 36.0206Z" fill="#00A651"/>
<path d="M123.495 36.0603L123.578 35.911C123.563 35.6437 123.563 35.3757 123.578 35.1083C123.578 35.0287 124.178 34.0269 124.374 33.7085L123.2 34.4416L123.495 36.0603Z" fill="#8DC63F"/>
<path d="M123.193 34.4414L122.125 34.6869C122.103 35.0789 122.054 35.469 121.979 35.8545L123.495 36.0601L123.193 34.4414Z" fill="#8DC63F"/>
<path d="M121.979 35.8545C121.924 36.1083 121.899 36.3678 121.906 36.6274C121.917 36.7255 121.917 36.8245 121.906 36.9226L123.478 36.0601L121.979 35.8545Z" fill="#006838"/>
<path d="M123.733 36.4647C123.745 36.4187 123.744 36.3703 123.729 36.3251C123.714 36.2799 123.687 36.2398 123.651 36.2093C123.624 36.1707 123.607 36.1264 123.601 36.08L123.495 36.0601L123.733 36.4647Z" fill="#00A651"/>
<path d="M122.377 40.2861L124.301 39.1749L124.055 38.7934C123.854 38.3782 123.692 37.9451 123.571 37.4998C123.519 37.3267 123.506 37.144 123.534 36.9653C123.562 36.7866 123.63 36.6167 123.734 36.4682L123.495 36.0635L122.377 40.2861Z" fill="#006838"/>
<path d="M123.495 36.0601L121.923 36.9225C121.915 37.2163 121.871 37.5082 121.793 37.7916C121.743 37.8878 121 38.9393 121 38.9393C120.93 39.1202 120.891 39.3122 120.888 39.5065C120.888 39.5065 120.888 39.5065 120.888 39.5264L122.38 40.286L123.495 36.0601Z" fill="#00A651"/>
<path d="M123.083 40.9693H123.312L124.347 40.6376V39.2478L124.301 39.1748L122.377 40.286L123.083 40.9693Z" fill="#8DC63F"/>
<path d="M120.884 39.5269C120.831 39.968 120.629 39.9116 120.692 39.9747C120.755 40.0377 120.692 40.5087 120.692 40.5087C121.134 40.7589 121.627 40.9041 122.135 40.9333L122.377 40.2865L120.884 39.5269Z" fill="#006838"/>
<path d="M122.135 40.9329L122.49 40.9627L122.377 40.2993L122.135 40.9329Z" fill="#00A651"/>
<path d="M122.49 40.9631C122.729 40.9631 122.938 40.9631 123.083 40.9631L122.377 40.2798L122.49 40.9631Z" fill="#D7DF23"/>
<path d="M132.985 31.0881C132.913 30.489 132.761 29.9022 132.534 29.3433L131.078 29.1841L132.985 31.0881Z" fill="#00A651"/>
<path d="M129.605 32.1758C129.625 32.3083 129.655 32.4391 129.695 32.5672L132.912 32.4876C132.968 32.0754 132.996 31.6597 132.995 31.2437V31.1011L131.078 29.1904L129.605 32.1758Z" fill="#00A651"/>
<path d="M129.694 32.5539C129.769 32.8275 129.901 33.082 130.082 33.3003C130.293 33.5971 130.436 33.9369 130.5 34.2954L132.089 32.481L129.694 32.5539Z" fill="#8DC63F"/>
<path d="M132.68 33.5527C132.788 33.2007 132.866 32.84 132.912 32.4746L132.089 32.4945L132.68 33.5527Z" fill="#006838"/>
<path d="M130.5 34.3091C130.619 34.8859 130.658 35.4763 130.617 36.0638C130.617 36.2098 130.587 36.4254 130.57 36.6675L132.892 37.5465L132.779 36.8301C132.693 36.6708 132.613 36.5183 132.55 36.369C132.358 35.9212 132.381 35.1184 132.428 34.5844L132.096 32.4946L130.5 34.3091Z" fill="#00A651"/>
<path d="M132.418 34.5843C132.444 34.2758 132.477 34.0602 132.477 34.0602C132.558 33.8967 132.626 33.727 132.68 33.5527L132.089 32.5078L132.418 34.5843Z" fill="#8DC63F"/>
<path d="M132.955 37.1514C132.892 37.0485 132.832 36.9457 132.776 36.8462L132.889 37.5627L132.955 37.1514Z" fill="#8DC63F"/>
<path d="M133.141 37.4205L132.955 37.1519L132.889 37.5632L133.141 37.4205Z" fill="#00A651"/>
<path d="M130.57 36.6675C130.52 37.301 130.471 38.1369 130.487 38.5715L132.882 37.5465L130.57 36.6675Z" fill="#00A651"/>
<path d="M135.662 39.407C135.595 39.407 135.45 39.2644 135.433 39.0753C135.416 38.8862 135.101 38.9459 134.998 38.9294C134.751 38.8316 134.508 38.7209 134.272 38.5977L135.649 39.6359C135.678 39.5198 135.715 39.407 135.662 39.407Z" fill="#00A651"/>
<path d="M134.023 38.4087C133.693 38.1106 133.398 37.7769 133.141 37.4136L132.882 37.5396L134.023 38.4087Z" fill="#00A651"/>
<path d="M132.882 37.5464L130.487 38.5714V38.6344C130.52 39.1983 130.796 39.2149 130.796 39.2149C131.811 39.5665 132.123 39.8153 132.235 39.9247L132.716 40.0773L132.882 37.5464Z" fill="#00A651"/>
<path d="M132.716 40.0773L135.599 40.2233L135.629 40.2C135.692 40.1835 135.596 39.8285 135.629 39.6992C135.629 39.6793 135.629 39.6561 135.649 39.6328L134.282 38.5946L134.199 38.5515L134.033 38.4088L132.892 37.5464L132.716 40.0773Z" fill="#006838"/>
<path d="M133.761 40.8235C134.093 40.8777 134.433 40.8514 134.753 40.747C135.073 40.6425 135.363 40.4629 135.599 40.2231L132.716 40.0771L133.761 40.8235Z" fill="#006838"/>
<path d="M132.769 40.4122C132.944 40.5668 133.147 40.6872 133.366 40.7671C133.506 40.7936 133.635 40.8102 133.761 40.8235L132.716 40.0771L132.769 40.4122Z" fill="#00A651"/>
<path d="M132.235 39.9248C132.255 39.9435 132.271 39.9661 132.282 39.9912C132.371 40.0774 132.454 40.1504 132.534 40.22L132.716 40.0774L132.235 39.9248Z" fill="#00A651"/>
<path d="M132.534 40.2199C132.62 40.2929 132.696 40.3592 132.769 40.4123L132.716 40.0806L132.534 40.2199Z" fill="#006838"/>
<path d="M130.815 6.14379C130.648 6.1885 130.473 6.19803 130.302 6.17176C130.131 6.1455 129.967 6.08403 129.82 5.99121L129.27 10.3532L128.762 14.3337H132.239C132.394 14.0484 132.6 13.7034 132.763 13.4381L131.572 8.99648L130.815 6.14379Z" fill="#00A651"/>
<path d="M129.197 14.695L128.773 14.3633L128.729 14.695H129.197Z" fill="#00A651"/>
<path d="M128.769 14.3665L129.197 14.6982H132.066C132.106 14.6086 132.172 14.4826 132.249 14.3433H128.772L128.769 14.3665Z" fill="#00A651"/>
<path d="M127.256 9.14882L129.28 10.3529L129.83 5.99096C129.625 5.85496 129.449 5.65925 129.21 5.46686L129.18 5.43701L128.268 7.19838L127.256 9.14882Z" fill="#8DC63F"/>
<path d="M129.28 10.3531L129.83 5.98779L129.28 10.3531Z" fill="#8DC63F"/>
<path d="M128.739 14.3401H128.772L129.28 10.3529L127.26 9.14551L128.636 14.3401H128.739Z" fill="#006838"/>
<path d="M128.636 14.3398L128.683 14.5223L128.739 14.3398H128.636Z" fill="#006838"/>
<path d="M128.683 14.5223L128.729 14.6948L128.772 14.3631L128.739 14.3398L128.683 14.5223Z" fill="#006838"/>
<path d="M128.772 14.3631V14.3398H128.739L128.772 14.3631Z" fill="#006838"/>
<path d="M128.729 14.695L128.773 14.3633L128.729 14.695Z" fill="#006838"/>
<path d="M128.636 14.3401L127.26 9.14551L125.631 14.3401H128.636Z" fill="#8DC63F"/>
<path d="M125.518 14.6951H125.624L125.578 14.5127L125.518 14.6951Z" fill="#8DC63F"/>
<path d="M128.683 14.5223L128.636 14.3398H125.631L125.578 14.5123L125.625 14.6948H128.63L128.683 14.5223Z" fill="#8DC63F"/>
<path d="M128.63 14.695H128.729L128.683 14.5225L128.63 14.695Z" fill="#8DC63F"/>
<path d="M128.268 7.19854L129.18 5.43717C128.848 5.08629 128.608 4.65744 128.484 4.18994L126.59 4.86994L128.268 7.19854Z" fill="#00A651"/>
<path d="M128.268 7.19529L126.59 4.8667L127.26 9.14573L128.268 7.19529Z" fill="#006838"/>
<path d="M128.268 7.19531L127.26 9.14575L128.268 7.19531Z" fill="#006838"/>
<path d="M125.631 14.3401L127.26 9.14551L122.981 12.7246L125.064 14.3401H125.532H125.631Z" fill="#00A651"/>
<path d="M125.064 14.3398L125.489 14.6716L125.532 14.3398H125.064Z" fill="#00A651"/>
<path d="M125.531 14.3398L125.488 14.6716L125.518 14.6948L125.578 14.5123L125.531 14.3398Z" fill="#00A651"/>
<path d="M125.531 14.3398L125.488 14.6716L125.531 14.3398Z" fill="#00A651"/>
<path d="M125.578 14.5123L125.631 14.3398H125.532L125.578 14.5123Z" fill="#00A651"/>
<path d="M126.59 4.8667L126.55 4.9065L126.567 5.02592L126.398 5.05909L122.981 8.479L127.26 9.14573L126.59 4.8667Z" fill="#00A651"/>
<path d="M122.981 8.479V12.7249L127.26 9.14574L122.981 8.479Z" fill="#006838"/>
<path d="M120.881 14.34L120.844 14.2969L120.785 14.34H120.881Z" fill="#8DC63F"/>
<path d="M122.977 12.7246L122.921 12.7644C123.674 14.0913 123.976 14.3234 123.976 14.3234L124.002 14.34H125.064L122.977 12.7246Z" fill="#8DC63F"/>
<path d="M125.488 14.6716L125.064 14.3398H123.999C124.188 14.4626 124.357 14.5787 124.513 14.6948H125.482L125.488 14.6716Z" fill="#8DC63F"/>
<path d="M125.485 14.6951H125.518L125.488 14.6719L125.485 14.6951Z" fill="#8DC63F"/>
<path d="M120.304 14.6948H121.057C121.031 14.6198 121 14.5467 120.964 14.4758C120.94 14.4282 120.912 14.3827 120.881 14.3398H120.785L120.304 14.6948Z" fill="#8DC63F"/>
<path d="M120.456 14.34L120.586 14.0448L120.506 13.9851C120.406 13.9073 120.294 13.8467 120.174 13.806C119.943 13.7328 119.698 13.7135 119.458 13.7496C119.292 13.7767 119.129 13.8121 118.967 13.8557C118.834 13.7529 118.907 13.7728 118.798 13.743C118.769 13.7362 118.74 13.7362 118.711 13.743L117.67 14.34H120.456Z" fill="#00A651"/>
<path d="M117.786 14.6948H119.256C119.256 14.6782 119.256 14.6516 119.256 14.6152L119.428 14.5555C119.593 14.4986 119.771 14.4929 119.939 14.5389C120.034 14.567 120.119 14.621 120.185 14.6948H120.311L120.463 14.3398H117.684L117.786 14.6948Z" fill="#00A651"/>
<path d="M117.673 14.3433L117.481 14.6949H117.789L117.677 14.3433H117.673Z" fill="#00A651"/>
<path d="M117.063 14.6949H117.481L117.673 14.3433L117.063 14.6949Z" fill="#00A651"/>
<path d="M122.977 8.479L121.587 11.7132L122.649 12.2704L122.881 12.695L122.977 12.7249V8.479Z" fill="#00A651"/>
<path d="M122.881 12.6948L122.921 12.7645L122.978 12.7247L122.881 12.6948Z" fill="#00A651"/>
<path d="M120.785 14.3401L120.845 14.297C120.77 14.2016 120.683 14.1168 120.586 14.0449L120.457 14.3401H120.785Z" fill="#00A651"/>
<path d="M120.788 14.3398H120.456L120.304 14.6948L120.788 14.3398Z" fill="#00A651"/>
<path d="M131.582 9.00311L132.773 13.4447L133.025 13.03C133.357 12.5457 133.138 11.4644 133.138 11.4644C133.396 11.3649 133.576 10.3001 133.576 10.3001L134.219 10.111L134.611 8.479L131.582 9.00311Z" fill="#006838"/>
<path d="M134.614 8.47858L132.374 6.03721L132.016 5.63916C131.83 5.75858 131.685 5.87136 131.685 5.87136C131.404 5.98607 131.113 6.07274 130.815 6.13009L131.582 8.98941L134.614 8.47858Z" fill="#00A651"/>
<path d="M134.219 10.1077L135.051 9.86223L134.613 8.479L134.219 10.1077Z" fill="#00A651"/>
<path d="M132.372 6.03747L132.809 5.35746C132.758 5.3509 132.705 5.3509 132.653 5.35746C132.424 5.41439 132.207 5.51582 132.017 5.65599L132.372 6.04078V6.03747Z" fill="#00A651"/>
<path d="M135.052 9.86193L135.546 9.71598L135.921 9.57003C136.696 9.28673 137.404 8.8463 138 8.27637L134.61 8.4787L135.052 9.86193Z" fill="#00A651"/>
<path d="M135.052 9.86223L134.614 8.479L135.052 9.86223Z" fill="#00A651"/>
<path d="M136.252 4.20312C136.302 4.51895 136.32 4.83902 136.305 5.15844C135.879 5.14658 135.453 5.17434 135.031 5.24136C134.709 5.36719 134.44 5.60185 134.272 5.90478C134.154 5.82232 134.029 5.75229 133.897 5.69581C133.548 5.54402 133.183 5.43272 132.809 5.3641L132.371 6.0441L134.61 8.48547L138 8.28313C138.303 8.01477 138.59 7.72902 138.859 7.42733C138.952 7.31786 139.045 7.21172 139.141 7.11552L138.352 6.30283L136.252 4.20312Z" fill="#006838"/>
<path d="M132.929 1.5861C132.799 1.73205 133.025 1.91781 133.025 1.91781C133.025 1.91781 133.413 2.01401 133.357 2.18981C133.345 2.22421 133.341 2.26067 133.345 2.29676C133.348 2.33286 133.36 2.36776 133.378 2.39915C133.396 2.43053 133.421 2.45768 133.45 2.47878C133.48 2.49988 133.513 2.51445 133.549 2.52152C133.632 2.52152 134.392 2.57128 134.544 2.55469C134.555 2.55649 134.566 2.55649 134.577 2.55469L132.959 1.55957C132.949 1.56889 132.939 1.57774 132.929 1.5861Z" fill="#006838"/>
<path d="M126.533 4.74372L126.59 4.86977L128.484 4.18978C128.417 3.97751 128.363 3.76153 128.321 3.54294L128.381 3.11505C128.378 3.10883 128.376 3.10202 128.376 3.09513C128.376 3.08825 128.378 3.08145 128.381 3.07523V3.11505C128.395 3.14672 128.419 3.17251 128.45 3.18801C128.513 3.22118 128.586 3.15816 128.656 3.03875L126.228 2.11328L126.533 4.74372Z" fill="#006838"/>
<path d="M126.534 4.7436L125.117 1.69189L124.855 2.0236C124.653 3.54614 125.237 3.15804 125.237 3.15804L125.22 3.57931C125.22 3.57931 125.22 3.93424 125.187 4.24273C125.145 4.46904 125.068 4.68734 124.958 4.88955H126.547L126.534 4.7436Z" fill="#00A651"/>
<path d="M126.55 4.90625L126.397 5.05884L126.567 5.02566L126.55 4.90625Z" fill="#00A651"/>
<path d="M125.12 1.69189L126.533 4.74361L126.231 2.11316L125.12 1.69189Z" fill="#00A651"/>
<path d="M126.228 2.11332L128.656 3.03879C128.728 2.90225 128.78 2.75583 128.809 2.60425C128.878 2.25596 128.855 1.60913 128.742 1.56932C128.63 1.52952 128.613 1.73185 128.613 1.60249C128.592 1.33928 128.509 1.08479 128.371 0.859462C128.208 0.617316 128.039 0.381808 127.233 0.252441H127.19L126.102 0.995464L126.228 2.11332Z" fill="#006838"/>
<path d="M126.102 1.00537L125.12 1.69201L126.231 2.11328L126.102 1.00537Z" fill="#006838"/>
<path d="M137.689 2.02686L136.07 2.30881C136.09 2.38498 136.105 2.46261 136.113 2.54101C136.13 2.94238 136.199 3.63233 136.252 4.19955L138.349 6.29595L137.689 2.02686Z" fill="#8DC63F"/>
<path d="M127.19 0.24586C126.801 0.161954 126.396 0.195436 126.026 0.342058L126.102 1.00547L127.19 0.24586Z" fill="#006838"/>
<path d="M126.102 0.995447L126.026 0.332031C125.866 0.403226 125.723 0.508503 125.608 0.640517C125.347 0.896795 125.177 1.23099 125.124 1.59252V1.55935V1.68209L126.102 0.995447Z" fill="#006838"/>
<path d="M118.632 9.14866L120.702 11.4706L120.964 11.5137C121.03 11.5137 121.295 11.6033 121.541 11.673V11.6929L121.591 11.7161L122.981 8.48193L118.632 9.14866Z" fill="#00A651"/>
<path d="M126.397 5.05908L124.646 5.42396C124.484 5.68161 124.285 5.91407 124.056 6.11391C123.724 6.39586 124.006 6.15372 122.895 6.37264C122.848 6.34942 122.792 6.32289 122.735 6.28972L122.977 8.47899L126.397 5.05908Z" fill="#8DC63F"/>
<path d="M126.546 4.8667L126.55 4.9065L126.59 4.8667H126.546Z" fill="#8DC63F"/>
<path d="M126.55 4.90612V4.86963H124.961C124.868 5.06003 124.764 5.24498 124.649 5.42359L126.401 5.0587L126.55 4.90612Z" fill="#8DC63F"/>
<path d="M118.635 9.1457L122.981 8.47897L117.899 6.0376L118.635 9.1457Z" fill="#8DC63F"/>
<path d="M118.4 9.97478C118.479 10.0463 118.562 10.1128 118.649 10.1738L119.193 10.4524C119.33 10.4524 119.465 10.4905 119.582 10.5625C119.699 10.6346 119.794 10.7377 119.856 10.8604C119.926 11.0165 120.028 11.1565 120.155 11.2718C120.325 11.3703 120.511 11.4366 120.705 11.4675L118.635 9.14551L118.4 9.97478Z" fill="#006838"/>
<path d="M117.673 14.3402L118.715 13.7431C118.581 13.7704 118.45 13.8139 118.327 13.8725C118.327 13.8725 117.514 13.1792 117.431 13.3716L117.159 14.3303L117.673 14.3402Z" fill="#006838"/>
<path d="M117.673 14.3432L117.677 14.3398L117.673 14.3432Z" fill="#006838"/>
<path d="M117.68 14.3398H117.677V14.3432L117.68 14.3398Z" fill="#006838"/>
<path d="M117.677 14.3432V14.3398L117.673 14.3432H117.677Z" fill="#006838"/>
<path d="M117.673 14.3432L117.677 14.3398H117.162L117.063 14.6948L117.673 14.3432Z" fill="#006838"/>
<path d="M117.899 6.0376L115.043 7.11233C114.927 7.35448 114.784 7.69613 114.645 8.08423L118.649 9.14901L117.899 6.0376Z" fill="#006838"/>
<path d="M118.115 9.69293C118.204 9.79264 118.299 9.8868 118.4 9.97488L118.632 9.14893L118.115 9.69293Z" fill="#006838"/>
<path d="M115.149 14.34H117.163L117.435 13.3814C117.363 13.5311 117.279 13.6743 117.183 13.8093L116.834 13.5572C116.834 13.5572 116.672 13.0695 117.338 11.1722C117.426 10.8802 117.497 10.5834 117.551 10.2832L114.758 13.2089C114.849 13.5984 114.98 13.9774 115.149 14.34Z" fill="#006838"/>
<path d="M117.162 14.3398H115.149C115.19 14.4296 115.246 14.5116 115.315 14.582C115.36 14.6228 115.407 14.6605 115.457 14.6948H117.063L117.162 14.3398Z" fill="#006838"/>
<path d="M122.977 8.47857L122.735 6.2893C122.569 6.19642 122.357 6.07369 122.108 5.95759L121.777 6.02726L121.893 5.85476C121.412 5.62806 120.896 5.4845 120.367 5.43018L117.899 6.04716L122.977 8.47857Z" fill="#00A651"/>
<path d="M122.109 5.94804L121.893 5.84521L121.777 6.01771L122.109 5.94804Z" fill="#00A651"/>
<path d="M114.758 13.209L117.551 10.2834C117.607 9.9782 117.66 9.66639 117.697 9.4541L114.277 10.5786C114.376 11.4655 114.537 12.3445 114.758 13.209Z" fill="#00A651"/>
<path d="M117.879 9.3944C117.952 9.49827 118.03 9.59794 118.114 9.69293L118.632 9.14893L117.879 9.3944Z" fill="#00A651"/>
<path d="M120.367 5.42034C120.367 5.42034 119.704 5.24122 117.889 5.93117V6.03732L120.367 5.42034Z" fill="#8DC63F"/>
<path d="M114.628 8.08398C114.35 8.80919 114.223 9.58342 114.254 10.3595C114.254 10.4325 114.254 10.5055 114.277 10.5784L117.697 9.45394C117.723 9.2914 117.74 9.18194 117.74 9.18194C117.782 9.25559 117.828 9.32651 117.879 9.39423L118.632 9.14876L114.628 8.08398Z" fill="#00A651"/>
<path d="M125.114 1.56914C125.08 1.47626 125.004 1.51274 124.961 1.54259L125.117 1.69187L125.114 1.56914Z" fill="#00A651"/>
<path d="M117.74 5.98779L117.521 6.07404C117.521 6.07404 116.167 5.82858 115.219 6.72087C115.219 6.72087 115.139 6.87014 115.026 7.11229L117.899 6.03756L117.74 5.98779Z" fill="#00A651"/>
<path d="M124.961 1.54297L124.928 1.56951C124.898 1.73868 124.875 1.88463 124.855 2.02063L125.117 1.68892L124.961 1.54297Z" fill="#006838"/>
<path d="M117.886 5.93115L117.74 5.98754L117.899 6.0373L117.886 5.93115Z" fill="#00A651"/>
<path d="M138.349 6.30256L139.367 3.92753C139.009 3.51621 138.514 3.02529 138.312 2.80304C138.203 2.68363 137.98 2.3685 137.708 2.01025L137.688 2.03016L138.349 6.30256Z" fill="#006838"/>
<path d="M135.098 0.481445L134.72 2.10681L135.174 2.32905C135.209 2.24157 135.272 2.16811 135.353 2.12008C135.486 2.01501 135.652 1.96298 135.821 1.97413C135.957 1.97413 136.03 2.15325 136.07 2.30584L137.688 2.02389L135.098 0.481445Z" fill="#8DC63F"/>
<path d="M138.352 6.30267L139.148 7.10208C139.513 6.72285 139.921 6.38875 140.365 6.10696C140.268 6.01235 140.191 5.89967 140.137 5.77525C140.024 5.54969 139.894 4.80667 139.748 4.44842C139.646 4.25715 139.517 4.08081 139.367 3.92432L138.349 6.30267H138.352Z" fill="#8DC63F"/>
<path d="M139.141 7.10899L138.345 6.30957L139.141 7.10899Z" fill="#8DC63F"/>
<path d="M133.181 0.600855C133.173 0.654743 133.173 0.709501 133.181 0.763389C133.185 1.03917 133.112 1.31065 132.968 1.54623L134.587 2.54135C134.7 2.46174 134.62 2.05706 134.62 2.05706L134.73 2.10681L135.108 0.481445L133.181 0.600855Z" fill="#006838"/>
<path d="M137.689 2.02717V1.99069C137.35 1.48696 136.98 1.00504 136.581 0.547757C136.521 0.547757 135.788 0.434978 135.271 0.352051L135.098 0.491373L137.689 2.02717Z" fill="#006838"/>
<path d="M134.852 0.275696H134.756C134.673 0.18276 134.574 0.105278 134.464 0.0468267C134.335 0.000387613 134.255 0.225942 134.255 0.225942C134.186 0.13783 134.089 0.0758408 133.98 0.0501369C133.834 0.0335515 133.672 0.308869 133.672 0.308869C133.672 0.308869 133.575 0.12975 133.463 0.146335C133.35 0.16292 133.224 0.401751 133.181 0.614045L135.098 0.494624L134.852 0.275696Z" fill="#00A651"/>
<path d="M135.277 0.331971L134.859 0.265625L135.105 0.471292L135.277 0.331971Z" fill="#8DC63F"/>
<path d="M137.688 2.0269L137.708 2.007L137.688 1.98047V2.0269Z" fill="#00A651"/>
<path d="M7.44353 12.353H11.1719L18.5956 31.6584H14.7776L13.265 27.6779H5.39025L3.81796 31.6584H0L7.44353 12.353ZM9.33095 17.4713L6.74031 24.1054H11.905L9.33095 17.4713Z" fill="#3D3D3D"/>
<path d="M19.5342 12.353H30.2019V15.9753H26.6858V31.6584H22.9607V15.9753H19.5342V12.353Z" fill="#3D3D3D"/>
<path d="M45.2181 31.6584L39.8743 17.4646L34.4376 31.6584H30.54L37.9902 12.353H41.7352L49.1588 31.6584H45.2181Z" fill="#3D3D3D"/>
<path d="M51.3848 12.353H61.9231V15.9487H55.0336V19.4383H61.9231V22.971H55.0336V28.0494H61.9231V31.6584H51.3848V12.353Z" fill="#3D3D3D"/>
<path d="M63.4453 12.353H74.113V15.9753H70.5936V31.6584H66.8685V15.9753H63.4453V12.353Z" fill="#3D3D3D"/>
<path d="M90.6888 12.353V31.6584H87.0135V19.571L79.8154 31.6584H76.6211V12.353H80.2964V24.8319L87.594 12.353H90.6888Z" fill="#3D3D3D"/>
<path d="M95.1406 12.353H98.8524V19.0071L104.097 12.353H108.508L101.768 20.9774L109.165 31.6684H104.79L98.8392 23.0904V31.6684H95.1406V12.353Z" fill="#3D3D3D"/>
<path d="M153.816 12.353V14.8442H154.629C159.273 14.8442 161.595 16.7559 161.595 20.5794C161.622 21.5295 161.436 22.4736 161.051 23.3425C160.689 24.0972 160.137 24.7444 159.449 25.22C158.798 25.691 158.057 26.022 157.273 26.1919C156.133 26.3735 154.98 26.4501 153.826 26.4208V31.6584H150.114V26.4208C148.771 26.4551 147.43 26.292 146.134 25.9365C145.105 25.617 144.209 24.9692 143.583 24.0922C142.891 23.0943 142.542 21.8989 142.588 20.6855C142.551 19.5476 142.828 18.4215 143.391 17.4315C143.916 16.554 144.709 15.8681 145.653 15.4744C146.628 15.0564 148.118 14.8464 150.121 14.8442V12.353H153.816ZM150.114 18.2442H149.262C147.975 18.2442 147.118 18.452 146.691 18.8678C146.464 19.1101 146.29 19.3966 146.18 19.7094C146.069 20.0222 146.024 20.3546 146.048 20.6855C146.048 21.6209 146.306 22.2711 146.827 22.6293C147.348 22.9876 148.111 23.1667 149.119 23.1667H150.114V18.2442ZM153.816 18.2442V23.1534H155.024C156.264 23.1534 157.087 22.9213 157.492 22.4569C157.909 21.9482 158.124 21.3032 158.095 20.6457C158.115 20.3217 158.068 19.9972 157.959 19.6916C157.849 19.3861 157.679 19.1058 157.458 18.8678C157.045 18.452 156.189 18.2442 154.891 18.2442H153.816Z" fill="#3D3D3D"/>
<path d="M169.818 27.2268L162.961 12.353H167.121L171.672 23.117L175.394 12.353H179.175L174.034 26.1587C173.149 28.5205 172.188 30.1016 171.151 30.9021C170.213 31.6663 169.044 32.0897 167.834 32.1029C165.923 32.1029 164.163 31.1664 162.553 29.2934L164.968 26.8686C165.93 27.9875 166.881 28.547 167.821 28.547C168.191 28.5612 168.555 28.4541 168.859 28.2418C169.217 27.9416 169.538 27.601 169.818 27.2268Z" fill="#3D3D3D"/>
<path d="M187.926 12.353H191.641L197.851 28.1954H199.997V34.5343H196.441V31.6485H183.173V34.5343H179.604V28.1954H181.74L187.926 12.353ZM189.813 17.4746L185.584 28.1954H194.029L189.813 17.4746Z" fill="#3D3D3D"/>
</g>
<defs>
<clipPath id="clip0_2_16720">
<rect width="200" height="40.946" fill="white" transform="translate(0 0.0268555)"/>
</clipPath>
</defs>
</svg>
